<mxfile host="app.diagrams.net" modified="2023-04-25T08:37:26.928Z" agent="Mozilla/5.0 (Windows NT 10.0; Win64; x64) AppleWebKit/537.36 (KHTML, like Gecko) Chrome/112.0.0.0 Safari/537.36" etag="tRRVXf9Sl8Km6leOlYwn" version="21.2.1" type="github" pages="3">
  <diagram name="思维导图" id="OOxz8nDA2zBTXserXBQq">
    <mxGraphModel dx="2206" dy="1089" grid="1" gridSize="10" guides="1" tooltips="1" connect="1" arrows="1" fold="1" page="1" pageScale="1" pageWidth="827" pageHeight="1169" math="0" shadow="0">
      <root>
        <mxCell id="0" />
        <mxCell id="1" parent="0" />
        <mxCell id="GbnP1xSUKACOj05AOEEQ-3" value="&lt;font style=&quot;font-size: 24px;&quot;&gt;LakeHouse&lt;/font&gt;" style="ellipse;whiteSpace=wrap;html=1;align=center;newEdgeStyle={&quot;edgeStyle&quot;:&quot;entityRelationEdgeStyle&quot;,&quot;startArrow&quot;:&quot;none&quot;,&quot;endArrow&quot;:&quot;none&quot;,&quot;segment&quot;:10,&quot;curved&quot;:1,&quot;sourcePerimeterSpacing&quot;:0,&quot;targetPerimeterSpacing&quot;:0};treeFolding=1;treeMoving=1;" vertex="1" parent="1">
          <mxGeometry x="50" y="350" width="140" height="70" as="geometry" />
        </mxCell>
        <mxCell id="GbnP1xSUKACOj05AOEEQ-5" value="&lt;font style=&quot;font-size: 24px;&quot;&gt;性能优化&lt;/font&gt;" style="whiteSpace=wrap;html=1;rounded=1;arcSize=50;align=center;verticalAlign=middle;strokeWidth=1;autosize=1;spacing=4;treeFolding=1;treeMoving=1;newEdgeStyle={&quot;edgeStyle&quot;:&quot;entityRelationEdgeStyle&quot;,&quot;startArrow&quot;:&quot;none&quot;,&quot;endArrow&quot;:&quot;none&quot;,&quot;segment&quot;:10,&quot;curved&quot;:1,&quot;sourcePerimeterSpacing&quot;:0,&quot;targetPerimeterSpacing&quot;:0};" vertex="1" parent="1">
          <mxGeometry x="250" y="110" width="140" height="50" as="geometry" />
        </mxCell>
        <mxCell id="GbnP1xSUKACOj05AOEEQ-6" value="" style="edgeStyle=entityRelationEdgeStyle;startArrow=none;endArrow=none;segment=10;curved=1;sourcePerimeterSpacing=0;targetPerimeterSpacing=0;rounded=0;exitX=1;exitY=0.5;exitDx=0;exitDy=0;" edge="1" target="GbnP1xSUKACOj05AOEEQ-5" parent="1" source="GbnP1xSUKACOj05AOEEQ-3">
          <mxGeometry relative="1" as="geometry">
            <mxPoint x="349" y="542" as="sourcePoint" />
          </mxGeometry>
        </mxCell>
        <mxCell id="TWokM2KLn3ChRtvrP0vo-1" value="&lt;font style=&quot;&quot;&gt;&lt;span style=&quot;font-size: 24px;&quot;&gt;向量引擎&lt;/span&gt;&lt;br&gt;&lt;font style=&quot;font-size: 12px;&quot;&gt;doris/rocks&lt;/font&gt;&lt;br&gt;&lt;/font&gt;" style="whiteSpace=wrap;html=1;rounded=1;arcSize=50;align=center;verticalAlign=middle;strokeWidth=1;autosize=1;spacing=4;treeFolding=1;treeMoving=1;newEdgeStyle={&quot;edgeStyle&quot;:&quot;entityRelationEdgeStyle&quot;,&quot;startArrow&quot;:&quot;none&quot;,&quot;endArrow&quot;:&quot;none&quot;,&quot;segment&quot;:10,&quot;curved&quot;:1,&quot;sourcePerimeterSpacing&quot;:0,&quot;targetPerimeterSpacing&quot;:0};" vertex="1" parent="1">
          <mxGeometry x="444" y="10" width="140" height="60" as="geometry" />
        </mxCell>
        <mxCell id="TWokM2KLn3ChRtvrP0vo-2" value="" style="edgeStyle=entityRelationEdgeStyle;startArrow=none;endArrow=none;segment=10;curved=1;sourcePerimeterSpacing=0;targetPerimeterSpacing=0;rounded=0;exitX=1;exitY=0.5;exitDx=0;exitDy=0;" edge="1" target="TWokM2KLn3ChRtvrP0vo-1" parent="1" source="GbnP1xSUKACOj05AOEEQ-5">
          <mxGeometry relative="1" as="geometry">
            <mxPoint x="350" y="135" as="sourcePoint" />
          </mxGeometry>
        </mxCell>
        <mxCell id="TWokM2KLn3ChRtvrP0vo-4" value="&lt;font style=&quot;&quot;&gt;&lt;span style=&quot;font-size: 24px;&quot;&gt;CBO&lt;/span&gt;&lt;br&gt;&lt;font style=&quot;font-size: 12px;&quot;&gt;doris/rocks&lt;/font&gt;&lt;br&gt;&lt;/font&gt;" style="whiteSpace=wrap;html=1;rounded=1;arcSize=50;align=center;verticalAlign=middle;strokeWidth=1;autosize=1;spacing=4;treeFolding=1;treeMoving=1;newEdgeStyle={&quot;edgeStyle&quot;:&quot;entityRelationEdgeStyle&quot;,&quot;startArrow&quot;:&quot;none&quot;,&quot;endArrow&quot;:&quot;none&quot;,&quot;segment&quot;:10,&quot;curved&quot;:1,&quot;sourcePerimeterSpacing&quot;:0,&quot;targetPerimeterSpacing&quot;:0};" vertex="1" parent="1">
          <mxGeometry x="455" y="75" width="100" height="60" as="geometry" />
        </mxCell>
        <mxCell id="TWokM2KLn3ChRtvrP0vo-5" value="" style="edgeStyle=entityRelationEdgeStyle;startArrow=none;endArrow=none;segment=10;curved=1;sourcePerimeterSpacing=0;targetPerimeterSpacing=0;rounded=0;exitX=1;exitY=0.5;exitDx=0;exitDy=0;" edge="1" target="TWokM2KLn3ChRtvrP0vo-4" parent="1" source="GbnP1xSUKACOj05AOEEQ-5">
          <mxGeometry relative="1" as="geometry">
            <mxPoint x="370" y="130" as="sourcePoint" />
          </mxGeometry>
        </mxCell>
        <mxCell id="TWokM2KLn3ChRtvrP0vo-7" value="&lt;font style=&quot;&quot;&gt;&lt;span style=&quot;font-size: 24px;&quot;&gt;全局低基数字典&lt;/span&gt;&lt;br&gt;&lt;font style=&quot;font-size: 12px;&quot;&gt;rocks&lt;/font&gt;&lt;br&gt;&lt;/font&gt;" style="whiteSpace=wrap;html=1;rounded=1;arcSize=50;align=center;verticalAlign=middle;strokeWidth=1;autosize=1;spacing=4;treeFolding=1;treeMoving=1;newEdgeStyle={&quot;edgeStyle&quot;:&quot;entityRelationEdgeStyle&quot;,&quot;startArrow&quot;:&quot;none&quot;,&quot;endArrow&quot;:&quot;none&quot;,&quot;segment&quot;:10,&quot;curved&quot;:1,&quot;sourcePerimeterSpacing&quot;:0,&quot;targetPerimeterSpacing&quot;:0};" vertex="1" parent="1">
          <mxGeometry x="444" y="160" width="210" height="60" as="geometry" />
        </mxCell>
        <mxCell id="TWokM2KLn3ChRtvrP0vo-8" value="" style="edgeStyle=entityRelationEdgeStyle;startArrow=none;endArrow=none;segment=10;curved=1;sourcePerimeterSpacing=0;targetPerimeterSpacing=0;rounded=0;exitX=1;exitY=0.5;exitDx=0;exitDy=0;" edge="1" target="TWokM2KLn3ChRtvrP0vo-7" parent="1" source="GbnP1xSUKACOj05AOEEQ-5">
          <mxGeometry relative="1" as="geometry">
            <mxPoint x="370" y="150" as="sourcePoint" />
          </mxGeometry>
        </mxCell>
        <mxCell id="TWokM2KLn3ChRtvrP0vo-9" value="&lt;font style=&quot;font-size: 24px;&quot;&gt;语法特性&lt;/font&gt;" style="whiteSpace=wrap;html=1;rounded=1;arcSize=50;align=center;verticalAlign=middle;strokeWidth=1;autosize=1;spacing=4;treeFolding=1;treeMoving=1;newEdgeStyle={&quot;edgeStyle&quot;:&quot;entityRelationEdgeStyle&quot;,&quot;startArrow&quot;:&quot;none&quot;,&quot;endArrow&quot;:&quot;none&quot;,&quot;segment&quot;:10,&quot;curved&quot;:1,&quot;sourcePerimeterSpacing&quot;:0,&quot;targetPerimeterSpacing&quot;:0};" vertex="1" parent="1">
          <mxGeometry x="265" y="490" width="140" height="50" as="geometry" />
        </mxCell>
        <mxCell id="TWokM2KLn3ChRtvrP0vo-10" value="" style="edgeStyle=entityRelationEdgeStyle;startArrow=none;endArrow=none;segment=10;curved=1;sourcePerimeterSpacing=0;targetPerimeterSpacing=0;rounded=0;exitX=1;exitY=0.5;exitDx=0;exitDy=0;" edge="1" target="TWokM2KLn3ChRtvrP0vo-9" parent="1" source="GbnP1xSUKACOj05AOEEQ-3">
          <mxGeometry relative="1" as="geometry">
            <mxPoint x="230" y="516" as="sourcePoint" />
          </mxGeometry>
        </mxCell>
        <mxCell id="TWokM2KLn3ChRtvrP0vo-11" value="&lt;font style=&quot;&quot;&gt;&lt;span style=&quot;font-size: 24px;&quot;&gt;CTE&lt;/span&gt;&lt;br&gt;&lt;font style=&quot;font-size: 12px;&quot;&gt;Common Table Expressions&lt;br&gt;&lt;/font&gt;doris/rocks&lt;br&gt;&lt;/font&gt;" style="whiteSpace=wrap;html=1;rounded=1;arcSize=50;align=center;verticalAlign=middle;strokeWidth=1;autosize=1;spacing=4;treeFolding=1;treeMoving=1;newEdgeStyle={&quot;edgeStyle&quot;:&quot;entityRelationEdgeStyle&quot;,&quot;startArrow&quot;:&quot;none&quot;,&quot;endArrow&quot;:&quot;none&quot;,&quot;segment&quot;:10,&quot;curved&quot;:1,&quot;sourcePerimeterSpacing&quot;:0,&quot;targetPerimeterSpacing&quot;:0};" vertex="1" parent="1">
          <mxGeometry x="430" y="440" width="190" height="80" as="geometry" />
        </mxCell>
        <mxCell id="TWokM2KLn3ChRtvrP0vo-12" value="" style="edgeStyle=entityRelationEdgeStyle;startArrow=none;endArrow=none;segment=10;curved=1;sourcePerimeterSpacing=0;targetPerimeterSpacing=0;rounded=0;exitX=1;exitY=0.5;exitDx=0;exitDy=0;" edge="1" target="TWokM2KLn3ChRtvrP0vo-11" parent="1" source="TWokM2KLn3ChRtvrP0vo-9">
          <mxGeometry relative="1" as="geometry">
            <mxPoint x="475" y="530" as="sourcePoint" />
          </mxGeometry>
        </mxCell>
        <mxCell id="TWokM2KLn3ChRtvrP0vo-14" value="&lt;font style=&quot;&quot;&gt;&lt;span style=&quot;font-size: 24px;&quot;&gt;Pipeline&lt;/span&gt;&lt;br&gt;&lt;font style=&quot;font-size: 12px;&quot;&gt;doris(beta)/rocks&lt;/font&gt;&lt;br&gt;&lt;/font&gt;" style="whiteSpace=wrap;html=1;rounded=1;arcSize=50;align=center;verticalAlign=middle;strokeWidth=1;autosize=1;spacing=4;treeFolding=1;treeMoving=1;newEdgeStyle={&quot;edgeStyle&quot;:&quot;entityRelationEdgeStyle&quot;,&quot;startArrow&quot;:&quot;none&quot;,&quot;endArrow&quot;:&quot;none&quot;,&quot;segment&quot;:10,&quot;curved&quot;:1,&quot;sourcePerimeterSpacing&quot;:0,&quot;targetPerimeterSpacing&quot;:0};" vertex="1" parent="1">
          <mxGeometry x="454" y="260" width="130" height="60" as="geometry" />
        </mxCell>
        <mxCell id="TWokM2KLn3ChRtvrP0vo-15" value="" style="edgeStyle=entityRelationEdgeStyle;startArrow=none;endArrow=none;segment=10;curved=1;sourcePerimeterSpacing=0;targetPerimeterSpacing=0;rounded=0;exitX=1;exitY=0.5;exitDx=0;exitDy=0;" edge="1" target="TWokM2KLn3ChRtvrP0vo-14" parent="1" source="GbnP1xSUKACOj05AOEEQ-5">
          <mxGeometry relative="1" as="geometry">
            <mxPoint x="394" y="282" as="sourcePoint" />
          </mxGeometry>
        </mxCell>
        <mxCell id="TWokM2KLn3ChRtvrP0vo-17" value="&lt;font style=&quot;font-size: 24px;&quot;&gt;运维特性&lt;/font&gt;" style="whiteSpace=wrap;html=1;rounded=1;arcSize=50;align=center;verticalAlign=middle;strokeWidth=1;autosize=1;spacing=4;treeFolding=1;treeMoving=1;newEdgeStyle={&quot;edgeStyle&quot;:&quot;entityRelationEdgeStyle&quot;,&quot;startArrow&quot;:&quot;none&quot;,&quot;endArrow&quot;:&quot;none&quot;,&quot;segment&quot;:10,&quot;curved&quot;:1,&quot;sourcePerimeterSpacing&quot;:0,&quot;targetPerimeterSpacing&quot;:0};" vertex="1" parent="1">
          <mxGeometry x="265" y="690" width="140" height="50" as="geometry" />
        </mxCell>
        <mxCell id="TWokM2KLn3ChRtvrP0vo-18" value="" style="edgeStyle=entityRelationEdgeStyle;startArrow=none;endArrow=none;segment=10;curved=1;sourcePerimeterSpacing=0;targetPerimeterSpacing=0;rounded=0;exitX=1;exitY=0.5;exitDx=0;exitDy=0;" edge="1" target="TWokM2KLn3ChRtvrP0vo-17" parent="1" source="GbnP1xSUKACOj05AOEEQ-3">
          <mxGeometry relative="1" as="geometry">
            <mxPoint x="284" y="602" as="sourcePoint" />
          </mxGeometry>
        </mxCell>
        <mxCell id="TWokM2KLn3ChRtvrP0vo-19" value="&lt;font style=&quot;&quot;&gt;&lt;span style=&quot;font-size: 24px;&quot;&gt;资源隔离&lt;/span&gt;&lt;br&gt;&lt;font style=&quot;font-size: 12px;&quot;&gt;doris/rocks&lt;/font&gt;&lt;br&gt;&lt;/font&gt;" style="whiteSpace=wrap;html=1;rounded=1;arcSize=50;align=center;verticalAlign=middle;strokeWidth=1;autosize=1;spacing=4;treeFolding=1;treeMoving=1;newEdgeStyle={&quot;edgeStyle&quot;:&quot;entityRelationEdgeStyle&quot;,&quot;startArrow&quot;:&quot;none&quot;,&quot;endArrow&quot;:&quot;none&quot;,&quot;segment&quot;:10,&quot;curved&quot;:1,&quot;sourcePerimeterSpacing&quot;:0,&quot;targetPerimeterSpacing&quot;:0};" vertex="1" parent="1">
          <mxGeometry x="449" y="660" width="140" height="60" as="geometry" />
        </mxCell>
        <mxCell id="TWokM2KLn3ChRtvrP0vo-20" value="" style="edgeStyle=entityRelationEdgeStyle;startArrow=none;endArrow=none;segment=10;curved=1;sourcePerimeterSpacing=0;targetPerimeterSpacing=0;rounded=0;exitX=1;exitY=0.5;exitDx=0;exitDy=0;" edge="1" target="TWokM2KLn3ChRtvrP0vo-19" parent="1" source="TWokM2KLn3ChRtvrP0vo-17">
          <mxGeometry relative="1" as="geometry">
            <mxPoint x="410" y="682" as="sourcePoint" />
          </mxGeometry>
        </mxCell>
        <mxCell id="TWokM2KLn3ChRtvrP0vo-21" value="&lt;font style=&quot;&quot;&gt;&lt;span style=&quot;font-size: 24px;&quot;&gt;存算分离&lt;/span&gt;&lt;br&gt;&lt;font style=&quot;font-size: 12px;&quot;&gt;rocks&lt;/font&gt;&lt;br&gt;&lt;/font&gt;" style="whiteSpace=wrap;html=1;rounded=1;arcSize=50;align=center;verticalAlign=middle;strokeWidth=1;autosize=1;spacing=4;treeFolding=1;treeMoving=1;newEdgeStyle={&quot;edgeStyle&quot;:&quot;entityRelationEdgeStyle&quot;,&quot;startArrow&quot;:&quot;none&quot;,&quot;endArrow&quot;:&quot;none&quot;,&quot;segment&quot;:10,&quot;curved&quot;:1,&quot;sourcePerimeterSpacing&quot;:0,&quot;targetPerimeterSpacing&quot;:0};" vertex="1" parent="1">
          <mxGeometry x="426" y="1010" width="140" height="60" as="geometry" />
        </mxCell>
        <mxCell id="TWokM2KLn3ChRtvrP0vo-22" value="" style="edgeStyle=entityRelationEdgeStyle;startArrow=none;endArrow=none;segment=10;curved=1;sourcePerimeterSpacing=0;targetPerimeterSpacing=0;rounded=0;exitX=1;exitY=0.5;exitDx=0;exitDy=0;" edge="1" target="TWokM2KLn3ChRtvrP0vo-21" parent="1" source="TWokM2KLn3ChRtvrP0vo-23">
          <mxGeometry relative="1" as="geometry">
            <mxPoint x="496" y="977" as="sourcePoint" />
          </mxGeometry>
        </mxCell>
        <mxCell id="TWokM2KLn3ChRtvrP0vo-23" value="&lt;font style=&quot;font-size: 24px;&quot;&gt;高级特性&lt;/font&gt;" style="whiteSpace=wrap;html=1;rounded=1;arcSize=50;align=center;verticalAlign=middle;strokeWidth=1;autosize=1;spacing=4;treeFolding=1;treeMoving=1;newEdgeStyle={&quot;edgeStyle&quot;:&quot;entityRelationEdgeStyle&quot;,&quot;startArrow&quot;:&quot;none&quot;,&quot;endArrow&quot;:&quot;none&quot;,&quot;segment&quot;:10,&quot;curved&quot;:1,&quot;sourcePerimeterSpacing&quot;:0,&quot;targetPerimeterSpacing&quot;:0};" vertex="1" parent="1">
          <mxGeometry x="265" y="1095" width="140" height="50" as="geometry" />
        </mxCell>
        <mxCell id="TWokM2KLn3ChRtvrP0vo-24" value="" style="edgeStyle=entityRelationEdgeStyle;startArrow=none;endArrow=none;segment=10;curved=1;sourcePerimeterSpacing=0;targetPerimeterSpacing=0;rounded=0;exitX=1;exitY=0.5;exitDx=0;exitDy=0;" edge="1" target="TWokM2KLn3ChRtvrP0vo-23" parent="1" source="GbnP1xSUKACOj05AOEEQ-3">
          <mxGeometry relative="1" as="geometry">
            <mxPoint x="270" y="802" as="sourcePoint" />
          </mxGeometry>
        </mxCell>
        <mxCell id="TWokM2KLn3ChRtvrP0vo-26" value="&lt;font style=&quot;&quot;&gt;&lt;span style=&quot;font-size: 24px;&quot;&gt;Unique/Primary Key&lt;/span&gt;&lt;br&gt;&lt;font style=&quot;font-size: 12px;&quot;&gt;doris/rocks&lt;/font&gt;&lt;br&gt;&lt;/font&gt;" style="whiteSpace=wrap;html=1;rounded=1;arcSize=50;align=center;verticalAlign=middle;strokeWidth=1;autosize=1;spacing=4;treeFolding=1;treeMoving=1;newEdgeStyle={&quot;edgeStyle&quot;:&quot;entityRelationEdgeStyle&quot;,&quot;startArrow&quot;:&quot;none&quot;,&quot;endArrow&quot;:&quot;none&quot;,&quot;segment&quot;:10,&quot;curved&quot;:1,&quot;sourcePerimeterSpacing&quot;:0,&quot;targetPerimeterSpacing&quot;:0};glass=0;" vertex="1" parent="1">
          <mxGeometry x="450" y="1190" width="260" height="60" as="geometry" />
        </mxCell>
        <mxCell id="TWokM2KLn3ChRtvrP0vo-27" value="" style="edgeStyle=entityRelationEdgeStyle;startArrow=none;endArrow=none;segment=10;curved=1;sourcePerimeterSpacing=0;targetPerimeterSpacing=0;rounded=0;exitX=1;exitY=0.5;exitDx=0;exitDy=0;" edge="1" target="TWokM2KLn3ChRtvrP0vo-26" parent="1" source="TWokM2KLn3ChRtvrP0vo-23">
          <mxGeometry relative="1" as="geometry">
            <mxPoint x="446" y="1187" as="sourcePoint" />
          </mxGeometry>
        </mxCell>
        <mxCell id="TWokM2KLn3ChRtvrP0vo-29" value="&lt;font style=&quot;font-size: 24px;&quot;&gt;权限管理&lt;/font&gt;" style="whiteSpace=wrap;html=1;rounded=1;arcSize=50;align=center;verticalAlign=middle;strokeWidth=1;autosize=1;spacing=4;treeFolding=1;treeMoving=1;newEdgeStyle={&quot;edgeStyle&quot;:&quot;entityRelationEdgeStyle&quot;,&quot;startArrow&quot;:&quot;none&quot;,&quot;endArrow&quot;:&quot;none&quot;,&quot;segment&quot;:10,&quot;curved&quot;:1,&quot;sourcePerimeterSpacing&quot;:0,&quot;targetPerimeterSpacing&quot;:0};fillColor=#f8cecc;strokeColor=#b85450;" vertex="1" parent="1">
          <mxGeometry x="454" y="730" width="140" height="50" as="geometry" />
        </mxCell>
        <mxCell id="TWokM2KLn3ChRtvrP0vo-30" value="" style="edgeStyle=entityRelationEdgeStyle;startArrow=none;endArrow=none;segment=10;curved=1;sourcePerimeterSpacing=0;targetPerimeterSpacing=0;rounded=0;exitX=1;exitY=0.5;exitDx=0;exitDy=0;" edge="1" target="TWokM2KLn3ChRtvrP0vo-29" parent="1" source="TWokM2KLn3ChRtvrP0vo-17">
          <mxGeometry relative="1" as="geometry">
            <mxPoint x="425" y="772" as="sourcePoint" />
          </mxGeometry>
        </mxCell>
        <mxCell id="TWokM2KLn3ChRtvrP0vo-31" value="&lt;font style=&quot;&quot;&gt;&lt;span style=&quot;font-size: 24px;&quot;&gt;物化视图&lt;/span&gt;&lt;br&gt;&lt;font style=&quot;font-size: 12px;&quot;&gt;doris/rocks&lt;/font&gt;&lt;br&gt;&lt;/font&gt;" style="whiteSpace=wrap;html=1;rounded=1;arcSize=50;align=center;verticalAlign=middle;strokeWidth=1;autosize=1;spacing=4;treeFolding=1;treeMoving=1;newEdgeStyle={&quot;edgeStyle&quot;:&quot;entityRelationEdgeStyle&quot;,&quot;startArrow&quot;:&quot;none&quot;,&quot;endArrow&quot;:&quot;none&quot;,&quot;segment&quot;:10,&quot;curved&quot;:1,&quot;sourcePerimeterSpacing&quot;:0,&quot;targetPerimeterSpacing&quot;:0};" vertex="1" parent="1">
          <mxGeometry x="449" y="545" width="140" height="60" as="geometry" />
        </mxCell>
        <mxCell id="TWokM2KLn3ChRtvrP0vo-32" value="" style="edgeStyle=entityRelationEdgeStyle;startArrow=none;endArrow=none;segment=10;curved=1;sourcePerimeterSpacing=0;targetPerimeterSpacing=0;rounded=0;exitX=1;exitY=0.5;exitDx=0;exitDy=0;" edge="1" target="TWokM2KLn3ChRtvrP0vo-31" parent="1" source="TWokM2KLn3ChRtvrP0vo-9">
          <mxGeometry relative="1" as="geometry">
            <mxPoint x="510" y="562" as="sourcePoint" />
          </mxGeometry>
        </mxCell>
        <mxCell id="TWokM2KLn3ChRtvrP0vo-33" value="&lt;font style=&quot;&quot;&gt;&lt;span style=&quot;font-size: 24px;&quot;&gt;动态分区&lt;/span&gt;&lt;br&gt;&lt;font style=&quot;font-size: 12px;&quot;&gt;doris/rocks&lt;/font&gt;&lt;br&gt;&lt;/font&gt;" style="whiteSpace=wrap;html=1;rounded=1;arcSize=50;align=center;verticalAlign=middle;strokeWidth=1;autosize=1;spacing=4;treeFolding=1;treeMoving=1;newEdgeStyle={&quot;edgeStyle&quot;:&quot;entityRelationEdgeStyle&quot;,&quot;startArrow&quot;:&quot;none&quot;,&quot;endArrow&quot;:&quot;none&quot;,&quot;segment&quot;:10,&quot;curved&quot;:1,&quot;sourcePerimeterSpacing&quot;:0,&quot;targetPerimeterSpacing&quot;:0};" vertex="1" parent="1">
          <mxGeometry x="454" y="795" width="140" height="60" as="geometry" />
        </mxCell>
        <mxCell id="TWokM2KLn3ChRtvrP0vo-34" value="" style="edgeStyle=entityRelationEdgeStyle;startArrow=none;endArrow=none;segment=10;curved=1;sourcePerimeterSpacing=0;targetPerimeterSpacing=0;rounded=0;exitX=1;exitY=0.5;exitDx=0;exitDy=0;" edge="1" target="TWokM2KLn3ChRtvrP0vo-33" parent="1" source="TWokM2KLn3ChRtvrP0vo-17">
          <mxGeometry relative="1" as="geometry">
            <mxPoint x="560" y="822" as="sourcePoint" />
          </mxGeometry>
        </mxCell>
        <mxCell id="TWokM2KLn3ChRtvrP0vo-35" value="&lt;font style=&quot;&quot;&gt;&lt;span style=&quot;font-size: 24px;&quot;&gt;算子落盘(OOM)&lt;/span&gt;&lt;br&gt;&lt;font style=&quot;font-size: 12px;&quot;&gt;rocks&lt;/font&gt;&lt;br&gt;&lt;/font&gt;" style="whiteSpace=wrap;html=1;rounded=1;arcSize=50;align=center;verticalAlign=middle;strokeWidth=1;autosize=1;spacing=4;treeFolding=1;treeMoving=1;newEdgeStyle={&quot;edgeStyle&quot;:&quot;entityRelationEdgeStyle&quot;,&quot;startArrow&quot;:&quot;none&quot;,&quot;endArrow&quot;:&quot;none&quot;,&quot;segment&quot;:10,&quot;curved&quot;:1,&quot;sourcePerimeterSpacing&quot;:0,&quot;targetPerimeterSpacing&quot;:0};" vertex="1" parent="1">
          <mxGeometry x="435" y="880" width="210" height="60" as="geometry" />
        </mxCell>
        <mxCell id="TWokM2KLn3ChRtvrP0vo-36" value="" style="edgeStyle=entityRelationEdgeStyle;startArrow=none;endArrow=none;segment=10;curved=1;sourcePerimeterSpacing=0;targetPerimeterSpacing=0;rounded=0;exitX=1;exitY=0.5;exitDx=0;exitDy=0;" edge="1" target="TWokM2KLn3ChRtvrP0vo-35" parent="1" source="TWokM2KLn3ChRtvrP0vo-17">
          <mxGeometry relative="1" as="geometry">
            <mxPoint x="380" y="780" as="sourcePoint" />
          </mxGeometry>
        </mxCell>
        <mxCell id="TWokM2KLn3ChRtvrP0vo-39" value="&lt;font style=&quot;font-size: 24px;&quot;&gt;Cache缓存&lt;/font&gt;" style="whiteSpace=wrap;html=1;rounded=1;arcSize=50;align=center;verticalAlign=middle;strokeWidth=1;autosize=1;spacing=4;treeFolding=1;treeMoving=1;newEdgeStyle={&quot;edgeStyle&quot;:&quot;entityRelationEdgeStyle&quot;,&quot;startArrow&quot;:&quot;none&quot;,&quot;endArrow&quot;:&quot;none&quot;,&quot;segment&quot;:10,&quot;curved&quot;:1,&quot;sourcePerimeterSpacing&quot;:0,&quot;targetPerimeterSpacing&quot;:0};fillColor=#f8cecc;strokeColor=#b85450;" vertex="1" parent="1">
          <mxGeometry x="454" y="350" width="160" height="50" as="geometry" />
        </mxCell>
        <mxCell id="TWokM2KLn3ChRtvrP0vo-40" value="" style="edgeStyle=entityRelationEdgeStyle;startArrow=none;endArrow=none;segment=10;curved=1;sourcePerimeterSpacing=0;targetPerimeterSpacing=0;rounded=0;exitX=1;exitY=0.5;exitDx=0;exitDy=0;" edge="1" target="TWokM2KLn3ChRtvrP0vo-39" parent="1" source="GbnP1xSUKACOj05AOEEQ-5">
          <mxGeometry relative="1" as="geometry">
            <mxPoint x="565" y="392" as="sourcePoint" />
          </mxGeometry>
        </mxCell>
        <mxCell id="TWokM2KLn3ChRtvrP0vo-42" value="&lt;font style=&quot;&quot;&gt;&lt;span style=&quot;font-size: 24px;&quot;&gt;Serverless&lt;/span&gt;&lt;br&gt;&lt;font style=&quot;font-size: 12px;&quot;&gt;tenant&lt;/font&gt;&lt;br&gt;&lt;/font&gt;" style="whiteSpace=wrap;html=1;rounded=1;arcSize=50;align=center;verticalAlign=middle;strokeWidth=1;autosize=1;spacing=4;treeFolding=1;treeMoving=1;newEdgeStyle={&quot;edgeStyle&quot;:&quot;entityRelationEdgeStyle&quot;,&quot;startArrow&quot;:&quot;none&quot;,&quot;endArrow&quot;:&quot;none&quot;,&quot;segment&quot;:10,&quot;curved&quot;:1,&quot;sourcePerimeterSpacing&quot;:0,&quot;targetPerimeterSpacing&quot;:0};" vertex="1" parent="1">
          <mxGeometry x="439" y="1090" width="160" height="60" as="geometry" />
        </mxCell>
        <mxCell id="TWokM2KLn3ChRtvrP0vo-43" value="" style="edgeStyle=entityRelationEdgeStyle;startArrow=none;endArrow=none;segment=10;curved=1;sourcePerimeterSpacing=0;targetPerimeterSpacing=0;rounded=0;exitX=1;exitY=0.5;exitDx=0;exitDy=0;" edge="1" target="TWokM2KLn3ChRtvrP0vo-42" parent="1" source="TWokM2KLn3ChRtvrP0vo-23">
          <mxGeometry relative="1" as="geometry">
            <mxPoint x="675" y="1097" as="sourcePoint" />
          </mxGeometry>
        </mxCell>
        <mxCell id="TWokM2KLn3ChRtvrP0vo-44" value="&lt;font style=&quot;font-size: 24px;&quot;&gt;数据湖分析&lt;/font&gt;&lt;br style=&quot;border-color: var(--border-color);&quot;&gt;&lt;font style=&quot;border-color: var(--border-color);&quot;&gt;doris/rocks&lt;/font&gt;" style="whiteSpace=wrap;html=1;rounded=1;arcSize=50;align=center;verticalAlign=middle;strokeWidth=1;autosize=1;spacing=4;treeFolding=1;treeMoving=1;newEdgeStyle={&quot;edgeStyle&quot;:&quot;entityRelationEdgeStyle&quot;,&quot;startArrow&quot;:&quot;none&quot;,&quot;endArrow&quot;:&quot;none&quot;,&quot;segment&quot;:10,&quot;curved&quot;:1,&quot;sourcePerimeterSpacing&quot;:0,&quot;targetPerimeterSpacing&quot;:0};" vertex="1" parent="1">
          <mxGeometry x="434" y="1310" width="160" height="60" as="geometry" />
        </mxCell>
        <mxCell id="TWokM2KLn3ChRtvrP0vo-45" value="" style="edgeStyle=entityRelationEdgeStyle;startArrow=none;endArrow=none;segment=10;curved=1;sourcePerimeterSpacing=0;targetPerimeterSpacing=0;rounded=0;exitX=1;exitY=0.5;exitDx=0;exitDy=0;" edge="1" target="TWokM2KLn3ChRtvrP0vo-44" parent="1" source="TWokM2KLn3ChRtvrP0vo-23">
          <mxGeometry relative="1" as="geometry">
            <mxPoint x="505" y="1372" as="sourcePoint" />
          </mxGeometry>
        </mxCell>
        <mxCell id="TWokM2KLn3ChRtvrP0vo-46" value="&lt;div&gt;&lt;span style=&quot;background-color: initial;&quot;&gt;Morsel-Driven Parallelism&lt;/span&gt;&lt;br&gt;&lt;/div&gt;&lt;div&gt;https://zhuanlan.zhihu.com/p/615029386&lt;/div&gt;&lt;div&gt;https://db.in.tum.de/~leis/papers/morsels.pdf&lt;br&gt;&lt;/div&gt;" style="whiteSpace=wrap;html=1;shape=partialRectangle;top=0;left=0;bottom=1;right=0;points=[[0,1],[1,1]];fillColor=none;align=center;verticalAlign=bottom;routingCenterY=0.5;snapToPoint=1;recursiveResize=0;autosize=1;treeFolding=1;treeMoving=1;newEdgeStyle={&quot;edgeStyle&quot;:&quot;entityRelationEdgeStyle&quot;,&quot;startArrow&quot;:&quot;none&quot;,&quot;endArrow&quot;:&quot;none&quot;,&quot;segment&quot;:10,&quot;curved&quot;:1,&quot;sourcePerimeterSpacing&quot;:0,&quot;targetPerimeterSpacing&quot;:0};" vertex="1" parent="1">
          <mxGeometry x="654" y="210" width="280" height="60" as="geometry" />
        </mxCell>
        <mxCell id="TWokM2KLn3ChRtvrP0vo-47" value="" style="edgeStyle=entityRelationEdgeStyle;startArrow=none;endArrow=none;segment=10;curved=1;sourcePerimeterSpacing=0;targetPerimeterSpacing=0;rounded=0;exitX=1;exitY=0.5;exitDx=0;exitDy=0;" edge="1" target="TWokM2KLn3ChRtvrP0vo-46" parent="1" source="TWokM2KLn3ChRtvrP0vo-14">
          <mxGeometry relative="1" as="geometry">
            <mxPoint x="840" y="280" as="sourcePoint" />
          </mxGeometry>
        </mxCell>
        <mxCell id="TWokM2KLn3ChRtvrP0vo-48" value="&lt;font style=&quot;font-size: 24px;&quot;&gt;开发工具&lt;/font&gt;" style="whiteSpace=wrap;html=1;rounded=1;arcSize=50;align=center;verticalAlign=middle;strokeWidth=1;autosize=1;spacing=4;treeFolding=1;treeMoving=1;newEdgeStyle={&quot;edgeStyle&quot;:&quot;entityRelationEdgeStyle&quot;,&quot;startArrow&quot;:&quot;none&quot;,&quot;endArrow&quot;:&quot;none&quot;,&quot;segment&quot;:10,&quot;curved&quot;:1,&quot;sourcePerimeterSpacing&quot;:0,&quot;targetPerimeterSpacing&quot;:0};" vertex="1" parent="1">
          <mxGeometry x="250" y="1540" width="140" height="50" as="geometry" />
        </mxCell>
        <mxCell id="TWokM2KLn3ChRtvrP0vo-49" value="" style="edgeStyle=entityRelationEdgeStyle;startArrow=none;endArrow=none;segment=10;curved=1;sourcePerimeterSpacing=0;targetPerimeterSpacing=0;rounded=0;exitX=1;exitY=0.5;exitDx=0;exitDy=0;" edge="1" target="TWokM2KLn3ChRtvrP0vo-48" parent="1" source="GbnP1xSUKACOj05AOEEQ-3">
          <mxGeometry relative="1" as="geometry">
            <mxPoint x="200" y="990" as="sourcePoint" />
          </mxGeometry>
        </mxCell>
        <mxCell id="TWokM2KLn3ChRtvrP0vo-50" value="&lt;font style=&quot;font-size: 24px;&quot;&gt;源码调优&lt;/font&gt;" style="whiteSpace=wrap;html=1;rounded=1;arcSize=50;align=center;verticalAlign=middle;strokeWidth=1;autosize=1;spacing=4;treeFolding=1;treeMoving=1;newEdgeStyle={&quot;edgeStyle&quot;:&quot;entityRelationEdgeStyle&quot;,&quot;startArrow&quot;:&quot;none&quot;,&quot;endArrow&quot;:&quot;none&quot;,&quot;segment&quot;:10,&quot;curved&quot;:1,&quot;sourcePerimeterSpacing&quot;:0,&quot;targetPerimeterSpacing&quot;:0};" vertex="1" parent="1">
          <mxGeometry x="439" y="1470" width="140" height="50" as="geometry" />
        </mxCell>
        <mxCell id="TWokM2KLn3ChRtvrP0vo-51" value="" style="edgeStyle=entityRelationEdgeStyle;startArrow=none;endArrow=none;segment=10;curved=1;sourcePerimeterSpacing=0;targetPerimeterSpacing=0;rounded=0;exitX=1;exitY=0.5;exitDx=0;exitDy=0;" edge="1" target="TWokM2KLn3ChRtvrP0vo-50" parent="1" source="TWokM2KLn3ChRtvrP0vo-48">
          <mxGeometry relative="1" as="geometry">
            <mxPoint x="454" y="1562" as="sourcePoint" />
          </mxGeometry>
        </mxCell>
        <mxCell id="TWokM2KLn3ChRtvrP0vo-52" value="&lt;div style=&quot;border-color: var(--border-color);&quot;&gt;Doris Perf优化&lt;/div&gt;&lt;div style=&quot;border-color: var(--border-color);&quot;&gt;https://www.cnblogs.com/happenlee/category/1931733.html&lt;/div&gt;" style="whiteSpace=wrap;html=1;shape=partialRectangle;top=0;left=0;bottom=1;right=0;points=[[0,1],[1,1]];fillColor=none;align=center;verticalAlign=bottom;routingCenterY=0.5;snapToPoint=1;recursiveResize=0;autosize=1;treeFolding=1;treeMoving=1;newEdgeStyle={&quot;edgeStyle&quot;:&quot;entityRelationEdgeStyle&quot;,&quot;startArrow&quot;:&quot;none&quot;,&quot;endArrow&quot;:&quot;none&quot;,&quot;segment&quot;:10,&quot;curved&quot;:1,&quot;sourcePerimeterSpacing&quot;:0,&quot;targetPerimeterSpacing&quot;:0};" vertex="1" parent="1">
          <mxGeometry x="614" y="1420" width="360" height="40" as="geometry" />
        </mxCell>
        <mxCell id="TWokM2KLn3ChRtvrP0vo-53" value="" style="edgeStyle=entityRelationEdgeStyle;startArrow=none;endArrow=none;segment=10;curved=1;sourcePerimeterSpacing=0;targetPerimeterSpacing=0;rounded=0;exitX=1;exitY=0.5;exitDx=0;exitDy=0;" edge="1" target="TWokM2KLn3ChRtvrP0vo-52" parent="1" source="TWokM2KLn3ChRtvrP0vo-50">
          <mxGeometry relative="1" as="geometry">
            <mxPoint x="1260" y="1430" as="sourcePoint" />
          </mxGeometry>
        </mxCell>
      </root>
    </mxGraphModel>
  </diagram>
  <diagram id="5T6hc978opmUqf4iGv0S" name="ReleaseNote">
    <mxGraphModel dx="1434" dy="708" grid="1" gridSize="10" guides="1" tooltips="1" connect="1" arrows="1" fold="1" page="1" pageScale="1" pageWidth="827" pageHeight="1169" math="0" shadow="0">
      <root>
        <mxCell id="0" />
        <mxCell id="1" parent="0" />
      </root>
    </mxGraphModel>
  </diagram>
  <diagram id="53oEihw2QNq7OV44sH4b" name="RoadMap">
    <mxGraphModel dx="1434" dy="708" grid="1" gridSize="10" guides="1" tooltips="1" connect="1" arrows="1" fold="1" page="1" pageScale="1" pageWidth="827" pageHeight="1169" math="0" shadow="0">
      <root>
        <mxCell id="0" />
        <mxCell id="1" parent="0" />
      </root>
    </mxGraphModel>
  </diagram>
</mxfile>
